<?xml version="1.0" encoding="UTF-8" standalone="no"?>
<!-- Created with Inkscape (http://www.inkscape.org/) -->

<svg
   width="211mm"
   height="275mm"
   viewBox="0 0 211 275"
   version="1.1"
   id="svg1"
   sodipodi:docname="luggagetagapp.svg"
   inkscape:version="1.4.2 (f4327f4, 2025-05-13)"
   xmlns:inkscape="http://www.inkscape.org/namespaces/inkscape"
   xmlns:sodipodi="http://sodipodi.sourceforge.net/DTD/sodipodi-0.dtd"
   xmlns="http://www.w3.org/2000/svg"
   xmlns:svg="http://www.w3.org/2000/svg">
  <sodipodi:namedview
     id="namedview1"
     pagecolor="#ffffff"
     bordercolor="#000000"
     borderopacity="0.25"
     inkscape:showpageshadow="2"
     inkscape:pageopacity="0.0"
     inkscape:pagecheckerboard="0"
     inkscape:deskcolor="#d1d1d1"
     inkscape:document-units="mm"
     inkscape:zoom="0.72604517"
     inkscape:cx="393.22622"
     inkscape:cy="496.52558"
     inkscape:window-width="1920"
     inkscape:window-height="1017"
     inkscape:window-x="-8"
     inkscape:window-y="-8"
     inkscape:window-maximized="1"
     inkscape:current-layer="layer1" />
  <defs
     id="defs1" />
  <g
     inkscape:label="Layer 1"
     inkscape:groupmode="layer"
     id="layer1">
    <path
       style="fill:#000000;stroke-width:0.298597"
       d="m 108.04547,273.13522 c -2.95553,-0.72832 -4.99741,-1.93855 -7.62116,-4.51713 -2.464269,-2.42184 -1.648382,-1.1297 -14.329279,-22.69339 -18.392931,-31.27696 -21.211774,-36.03935 -41.79868,-70.61829 -1.75995,-2.95611 -4.98164,-8.39804 -7.159311,-12.09319 -2.17767,-3.69514 -5.201697,-8.80116 -6.720059,-11.3467 -2.588795,-4.34013 -10.057587,-16.97981 -11.20403,-18.96093 -0.285107,-0.49269 -2.697147,-4.56656 -5.360086,-9.05307 C 6.1667714,110.90306 5.3775693,109.02897 5.4053001,103.79234 5.4215699,100.72111 5.9879737,98.591568 7.4539252,96.090112 9.649321,92.343958 12.044374,90.685976 25.03539,83.919313 30.947619,80.839793 36.158633,78.096041 36.615421,77.822085 L 37.445948,77.32398 34.077343,74.317799 C 18.381136,60.310324 4.1995737,39.106506 1.7215881,25.940509 1.0907414,22.588706 1.2652509,18.349388 2.1340738,15.920096 4.7787203,8.525487 15.994005,1.163221 23.686764,1.7718512 c 4.997791,0.395411 8.686573,2.5106238 14.337612,8.2214366 7.67942,7.7606522 16.968029,21.6331312 23.313564,34.8186602 2.323936,4.828974 5.052878,11.301606 6.080068,14.421016 l 0.518267,1.573913 2.735949,-1.459732 C 82.738429,52.909351 98.442645,45.05283 100.53733,44.406187 c 3.75617,-1.159547 8.03345,-0.764385 11.67238,1.078366 1.82048,0.921887 4.59056,3.520891 6.29257,5.903952 0.70377,0.985371 8.5282,13.884776 17.38762,28.665347 15.73367,26.249148 18.68786,31.158658 35.75539,59.420878 11.16363,18.48593 32.2604,53.7055 34.14749,57.00681 3.25004,5.68574 4.37761,9.56055 4.13468,14.20866 -0.31073,5.9457 -3.24918,10.76042 -8.79609,14.41259 -2.05668,1.35414 -15.2404,8.96344 -26.49869,15.29437 -3.4488,1.93937 -7.47986,4.22645 -8.95792,5.08238 -1.47806,0.85596 -5.37476,3.06937 -8.65934,4.91873 -11.2662,6.34335 -15.53024,8.74716 -17.76652,10.01574 -2.13768,1.21263 -5.83565,3.29327 -15.62597,8.79183 -7.88983,4.4312 -10.68245,5.13563 -15.57746,3.92938 z m 7.59861,-0.83014 c 1.82933,-0.50991 3.84557,-1.48484 8.21731,-3.97341 1.64764,-0.9379 4.7425,-2.68413 6.87747,-3.88049 2.13498,-1.19638 5.35983,-3.01585 7.16634,-4.04328 1.80652,-1.02741 8.12186,-4.5897 14.03408,-7.91621 5.91223,-3.32649 11.95883,-6.7496 13.43688,-7.60688 1.47806,-0.8573 5.50912,-3.14548 8.95792,-5.08485 11.13216,-6.26 24.4327,-13.9341 26.43473,-15.25224 3.90459,-2.57078 6.63913,-5.99466 7.83819,-9.81405 0.50987,-1.62415 0.65788,-2.816 0.65041,-5.23786 -0.0121,-3.91686 -0.69449,-6.31334 -3.10356,-10.8988 -1.52956,-2.9114 -24.23971,-40.94898 -38.24023,-64.04914 C 158.32051,118.71973 154.14,111.77435 136.64063,82.591931 127.03879,66.579646 118.60784,52.672473 117.90519,51.687102 113.50009,45.509546 107.19742,43.041331 100.83593,45.00254 98.891258,45.602072 90.021361,50.010415 74.942842,57.871429 71.188506,59.828705 67.94405,61.363827 67.73292,61.282812 67.521801,61.201798 67.117169,60.42049 66.833754,59.546578 65.090291,54.170586 59.923651,42.91171 56.203309,36.381253 49.964877,25.430691 43.574534,16.534734 37.577116,10.451844 31.71948,4.5107268 27.766219,2.4138564 22.497313,2.4532816 18.404098,2.4839132 14.501714,4.0664748 9.6207934,7.6752013 3.4902907,12.207813 1.0915858,17.674448 2.1662623,24.664038 3.730919,34.840443 12.506788,50.116031 24.810209,64.078892 c 3.386366,3.843107 9.049264,9.390088 12.093274,11.845726 0.779453,0.628795 1.417706,1.299728 1.418338,1.490966 5.98e-4,0.191236 -1.510496,1.119202 -3.358068,2.062152 -16.957966,8.654856 -22.8963,12.059307 -25.0520207,14.362347 -2.424017,2.589676 -3.8372757,6.272437 -3.8372757,9.999417 0,5.07293 0.8154074,6.99525 8.3287494,19.63497 2.595235,4.36597 5.295954,8.9459 6.001598,10.1776 0.705647,1.23172 2.048902,3.51598 2.985013,5.07616 2.237086,3.72844 10.270983,17.26836 15.148254,25.53008 5.156675,8.73502 13.948642,23.54265 20.743037,34.93589 5.627858,9.43715 9.184156,15.44951 16.513908,27.91886 2.268614,3.85938 5.63177,9.57005 7.47367,12.69039 1.841892,3.12034 5.674765,9.63723 8.517482,14.48197 6.778881,11.55298 7.46054,12.56323 9.884942,14.64984 2.40535,2.07023 4.24995,3.06722 6.52366,3.52596 0.90324,0.18226 1.91101,0.38816 2.23948,0.45758 0.89614,0.18942 3.37689,-0.1028 5.20983,-0.61372 z m -7.15265,-3.96598 c -2.31254,-0.70344 -4.98325,-2.92624 -6.896,-5.73945 -0.63152,-0.92883 -2.110713,-3.34747 -3.287085,-5.37475 -1.176382,-2.02729 -5.124026,-8.72481 -8.772542,-14.88338 -3.648515,-6.15856 -10.035464,-16.97525 -14.193215,-24.03708 -4.15775,-7.06182 -10.809703,-18.28162 -14.782111,-24.93289 -7.137413,-11.95061 -13.391045,-22.49473 -18.506493,-31.20341 -1.447006,-2.46344 -4.669525,-7.90538 -7.161153,-12.09321 -2.491629,-4.18782 -6.116446,-10.30161 -8.055152,-13.58617 -1.938706,-3.28458 -5.774914,-9.73428 -8.524908,-14.33268 -7.152964,-11.96083 -7.729714,-13.19223 -7.978876,-17.03551 -0.3749162,-5.782974 2.157429,-9.183605 9.820574,-13.187834 1.699133,-0.887859 4.433025,-2.328122 6.07531,-3.200598 1.642287,-0.872476 4.262478,-2.257284 5.82265,-3.077355 6.250802,-3.285595 14.577554,-7.68345 16.190284,-8.551054 1.112582,-0.598539 1.809613,-0.817098 1.998803,-0.626735 0.159766,0.160757 0.43547,1.202466 0.612676,2.314905 0.286031,1.795618 0.234396,2.44878 -0.4601,5.819867 -1.096951,5.324617 -0.78372,7.268456 1.493423,9.267809 1.198403,1.052212 2.548263,1.413508 5.027535,1.345647 2.164813,-0.05927 4.053616,-0.676594 7.833796,-2.560364 7.861224,-3.917495 10.748378,-7.032647 10.719408,-11.565915 -0.01444,-2.258193 -0.520344,-3.55106 -2.894795,-7.397624 -1.578275,-2.556792 -3.042341,-5.791715 -3.375807,-7.459014 -0.167828,-0.839151 -0.125361,-0.864702 9.78451,-5.887343 5.474192,-2.774491 12.075466,-6.155328 14.669526,-7.512969 7.145382,-3.739655 8.236222,-4.140865 11.258502,-4.140865 1.79081,0 2.9774,0.169421 4.0302,0.575421 1.77292,0.68371 4.12894,2.828153 6.0224,5.481602 1.20963,1.695143 13.87359,22.591684 26.82092,44.256636 3.93796,6.589443 9.80623,16.354953 20.54504,34.189393 13.47656,22.38114 16.72438,27.76873 17.91051,29.71044 1.83343,3.00137 16.86813,28.16061 19.59619,32.79253 5.8102,9.86497 6.68446,14.31215 3.89159,19.79582 -0.7965,1.5639 -3.408,4.31579 -5.33339,5.62015 -4.54951,3.08203 -80.90646,46.23412 -83.16039,46.99694 -1.52901,0.51749 -5.35235,0.64171 -6.74183,0.21904 z m 6.71516,-0.93908 c 0.91271,-0.34151 6.66202,-3.44539 12.77623,-6.89757 6.11422,-3.45217 17.56647,-9.91414 25.44944,-14.35994 20.98335,-11.83409 42.75226,-24.31947 44.6696,-25.61989 1.89793,-1.28726 4.23749,-3.76607 5.03798,-5.33786 0.83485,-1.63923 1.50188,-4.16207 1.50188,-5.68041 0,-3.87707 -1.99337,-8.09898 -10.1573,-21.51293 -1.34755,-2.21413 -5.1735,-8.59423 -8.5021,-14.17799 -3.3286,-5.58377 -8.97562,-14.98959 -12.54896,-20.90182 -3.57333,-5.91223 -9.68528,-16.05708 -13.58211,-22.54411 C 155.9544,123.88048 144.53342,104.86729 134.47126,88.115981 124.4091,71.364668 115.51117,56.692486 114.69808,55.51113 c -3.67965,-5.346158 -7.68041,-7.266741 -12.34744,-5.927426 -2.10795,0.604926 -3.387116,1.239382 -26.609592,13.198145 l -6.027848,3.104131 0.543478,1.559885 c 0.800712,2.29817 1.157527,3.014427 3.345134,6.715057 2.189739,3.704251 2.80171,5.61287 2.557705,7.977066 -0.436514,4.229425 -3.568655,7.364942 -11.112077,11.124064 -4.223095,2.104494 -5.84588,2.591726 -8.659324,2.599897 -2.914346,0.0081 -4.750699,-0.758248 -5.945506,-2.482354 -1.524419,-2.199738 -1.716247,-4.284179 -0.772936,-8.398887 0.566744,-2.472128 0.734815,-6.071421 0.343482,-7.355722 -0.182685,-0.599535 -0.55675,-0.443894 -6.315429,2.627732 -3.366686,1.795759 -8.405518,4.460603 -11.197403,5.921873 -16.911049,8.851232 -17.59904,9.270178 -19.563553,11.913018 -2.351592,3.163591 -2.675657,6.981541 -0.965757,11.378081 0.479036,1.23171 4.472846,8.28608 8.87513,15.67636 11.380053,19.10414 17.613202,29.6092 22.855193,38.51907 5.44629,9.25712 9.01259,15.26415 17.461429,29.41183 3.481678,5.83012 9.221146,15.50468 12.754388,21.49902 3.533229,5.99434 8.365643,14.19083 10.738681,18.21444 2.373042,4.02359 6.843788,11.61545 9.934998,16.87075 3.091199,5.25532 6.287147,10.58989 7.102107,11.85462 2.14082,3.32229 4.58165,5.46497 7.09708,6.23014 1.53053,0.46556 4.71144,0.29607 6.41657,-0.3419 z m -4.47375,-72.73674 c -2.19742,-0.582 -3.59197,-3.08437 -3.37678,-6.05929 0.14698,-2.03189 0.83596,-3.0033 3.17712,-4.47947 l 1.29333,-0.8155 -0.7739,-0.86603 -0.77391,-0.86604 -1.31441,1.41834 c -0.90098,0.97223 -1.55211,1.41834 -2.07014,1.41834 -0.88827,0 -1.68536,-0.98778 -1.68536,-2.08859 0,-1.70537 3.15604,-4.18196 5.32932,-4.18196 1.18847,0 2.72477,0.62905 3.36331,1.37713 0.53665,0.62871 5.93864,11.07931 5.93864,11.4888 0,0.36384 -2.23633,1.46675 -2.97408,1.46675 -0.33499,0 -0.61761,-0.16796 -0.62801,-0.37325 -0.0102,-0.20529 -0.13812,-0.0772 -0.28379,0.28456 -0.57191,1.42044 -3.55022,2.71881 -5.22134,2.27621 z m 3.38907,-1.59219 c 0.73866,-0.53509 1.23919,-1.13813 1.23919,-1.49298 0,-0.71059 1.04095,-0.82867 1.30226,-0.14774 0.15052,0.39228 0.30205,0.38545 1.22633,-0.0553 0.58002,-0.27659 1.04789,-0.57878 1.03975,-0.67154 -0.008,-0.0928 -1.25107,-2.50946 -2.76203,-5.37046 -3.00713,-5.69404 -3.66802,-6.44985 -5.57333,-6.37388 -1.49973,0.0598 -2.66799,0.6718 -3.84798,2.01573 -1.10247,1.25564 -1.15685,1.65705 -0.32628,2.4087 0.60561,0.54807 0.62993,0.53667 1.81481,-0.84952 1.43901,-1.68348 2.53269,-1.87548 3.52163,-0.61826 1.01849,1.29481 0.78993,1.92635 -1.13084,3.12465 -2.63904,1.64641 -3.35884,3.78073 -2.16302,6.41366 1.18587,2.61104 3.41,3.24648 5.65951,1.61695 z m -3.21811,-2.27787 c -0.99684,-1.26731 -0.83831,-2.93528 0.39638,-4.16996 1.5146,-1.51462 2.33539,-1.38484 3.14506,0.4973 0.55428,1.28844 0.60057,1.66432 0.31253,2.53715 -0.64796,1.96329 -2.72211,2.57441 -3.85397,1.13551 z m 2.52999,-0.54336 c 0.8664,-0.8664 0.90941,-1.72526 0.15718,-3.13803 l -0.5507,-1.03428 -1.07907,1.07907 c -1.23364,1.23363 -1.33807,1.92335 -0.46019,3.03939 0.76448,0.97189 1.00795,0.97867 1.93278,0.0538 z m 8.66642,0.65708 c -1.06041,-1.61838 -7.34778,-14.89249 -7.18143,-15.16165 0.30255,-0.48954 2.56032,-1.53717 2.97218,-1.37913 0.20998,0.0806 0.5275,-0.17332 0.7056,-0.5642 0.74985,-1.64571 4.12972,-2.42984 6.21278,-1.44136 2.28948,1.08643 4.57803,5.06244 4.58291,7.96215 0.003,1.94884 -0.41201,2.93785 -1.77977,4.23842 -0.7742,0.73617 -1.1921,0.89434 -2.36667,0.89579 l -1.42646,0.002 0.7346,1.3437 c 0.40403,0.73902 0.85239,1.47133 0.99634,1.62735 0.14395,0.15601 0.26172,0.59045 0.26172,0.96541 0,0.51755 -0.3572,0.86275 -1.48307,1.43327 -0.81567,0.41333 -1.5516,0.75152 -1.63539,0.75152 -0.0838,0 -0.35079,-0.30286 -0.59334,-0.67304 z m 2.06951,-0.82414 c 0.49269,-0.23316 0.93072,-0.44092 0.97343,-0.46169 0.0426,-0.0208 -0.46119,-1.018 -1.11974,-2.21607 -0.65856,-1.19808 -1.19738,-2.30933 -1.19738,-2.46946 0,-0.173 0.51501,-0.21476 1.26904,-0.10293 2.6468,0.39266 4.91954,-2.07289 4.59145,-4.98098 -0.34051,-3.01807 -3.21757,-6.84059 -5.46616,-7.26243 -1.73214,-0.32494 -4.27609,1.1268 -4.27609,2.4402 0,0.52576 -0.16402,0.72483 -0.5972,0.72483 -0.32845,0 -0.59719,-0.14343 -0.59719,-0.31872 0,-0.37462 -1.16624,-0.0835 -1.70457,0.42541 -0.27884,0.26363 0.44896,1.99248 3.20156,7.60497 1.95935,3.99509 3.66697,7.2136 3.79474,7.15227 0.12779,-0.0613 0.63543,-0.30229 1.12811,-0.53545 z m -2.32003,-7.3861 c -0.97963,-1.08525 -2.30822,-4.03503 -2.30822,-5.12483 0,-2.36713 2.52336,-3.26796 4.49854,-1.60596 2.02822,1.70664 2.73011,5.12798 1.33768,6.52041 -0.90134,0.90134 -2.80196,1.01468 -3.528,0.21038 z m 2.87695,-0.69352 c 0.46896,-0.36887 0.78676,-0.91552 0.78676,-1.35328 0,-1.86824 -2.15246,-4.89559 -3.4808,-4.89559 -0.76264,0 -1.89733,1.06606 -1.88739,1.77324 0.0101,0.69002 1.11021,2.99547 1.96455,4.11557 0.86538,1.13459 1.51808,1.22439 2.61688,0.36006 z m -61.837995,8.00916 c -0.880815,-1.12963 -8.741423,-15.89484 -8.73571,-16.40899 0.0045,-0.40271 2.698039,-2.02941 3.360375,-2.02941 0.208117,0 1.966291,3.02245 3.907049,6.71656 1.940769,3.69409 3.617996,6.77025 3.727172,6.83593 0.109132,0.0657 1.20627,-0.46419 2.437988,-1.17745 2.958512,-1.71321 3.306865,-1.69889 4.183132,0.17197 0.437644,0.9344 0.596443,1.60449 0.421641,1.7793 -0.421877,0.42188 -8.275483,4.48533 -8.668988,4.48533 -0.187894,0 -0.472595,-0.16796 -0.632659,-0.37324 z m 8.361547,-4.39266 c 0.126941,-0.11251 0.02551,-0.69577 -0.225327,-1.29618 l -0.456129,-1.09165 -2.619922,1.39468 c -1.460579,0.77753 -2.823233,1.31668 -3.07937,1.21839 -0.252707,-0.0969 -1.717652,-2.57498 -3.255458,-5.50671 -3.361206,-6.40792 -3.873932,-7.35209 -4.153808,-7.64913 -0.225811,-0.23966 -1.985831,0.52099 -2.270227,0.98116 -0.156486,0.25319 2.236516,4.92908 6.422917,12.55026 l 1.894656,3.44913 3.755928,-1.92271 c 2.065767,-1.05749 3.859789,-2.01474 3.98674,-2.12724 z m 58.607668,-8.89494 c -2.22873,-4.39311 -3.99349,-8.14066 -3.92171,-8.32788 0.17082,-0.44555 1.89969,-1.30187 2.62839,-1.30187 0.31383,0 0.89627,-0.38706 1.29434,-0.86012 2.13076,-2.53227 6.02152,-2.35842 8.42269,0.37638 2.43358,2.77169 3.3427,6.39348 2.23398,8.8999 -0.80697,1.82433 -2.37748,2.9951 -4.08186,3.04291 -1.14138,0.0321 -1.2648,0.0964 -0.92917,0.48482 0.62506,0.72332 1.95278,3.38672 1.95278,3.91728 0,0.44184 -2.43025,1.75607 -3.2473,1.75607 -0.16496,0 -2.12342,-3.59436 -4.35214,-7.98749 z m 6.00789,6.55664 0.94654,-0.51003 -1.15919,-1.94089 c -1.59878,-2.67692 -1.56294,-2.98597 0.34635,-2.98597 1.37029,0 1.64487,-0.11676 2.65868,-1.13056 1.32208,-1.32208 1.85379,-2.96909 1.51476,-4.69208 -0.84414,-4.29 -4.51065,-7.54507 -7.55264,-6.70513 -1.00465,0.27738 -2.66271,1.77915 -3.00286,2.71978 -0.11263,0.31129 -0.27218,0.32602 -0.70637,0.0653 -0.42963,-0.25812 -0.75761,-0.23655 -1.40112,0.0922 -0.46211,0.23605 -0.79802,0.53998 -0.74649,0.67541 0.58597,1.54007 7.63542,14.93446 7.85723,14.92921 0.16423,-0.003 0.72452,-0.23656 1.24511,-0.51708 z m -2.84226,-8.07793 c -0.4354,-0.46721 -1.17886,-1.66188 -1.65211,-2.65482 -0.67867,-1.42385 -0.81768,-2.03356 -0.6579,-2.88526 0.41712,-2.22343 3.01175,-2.81149 4.79193,-1.08607 3.19519,3.09692 2.88064,7.43783 -0.54103,7.46611 -0.88563,0.007 -1.33082,-0.18535 -1.94089,-0.83996 z m 3.22449,-0.32325 c 1.313,-1.0091 0.71411,-3.75551 -1.24644,-5.71606 -0.97627,-0.97628 -1.8622,-1.1036 -2.85255,-0.40993 -0.92005,0.64442 -0.85105,1.86831 0.22558,4.00111 1.3188,2.61251 2.43919,3.22714 3.87341,2.12488 z m -64.366078,8.06888 c -0.510988,-0.31158 -1.224563,-0.98152 -1.585736,-1.48872 -1.074871,-1.50953 -4.867263,-9.58122 -4.702877,-10.00958 0.203366,-0.52997 2.90749,-2.02344 3.353677,-1.85222 0.194303,0.0746 0.432429,0.45087 0.529146,0.83624 0.345666,1.37726 3.729091,8.16698 4.348352,8.72611 0.523064,0.47226 0.757511,0.51238 1.368264,0.23411 1.465284,-0.66763 1.311721,-1.53624 -1.156128,-6.53907 -1.84351,-3.73716 -2.217378,-4.71895 -1.929212,-5.06618 0.393991,-0.47473 2.183408,-1.29199 2.828875,-1.29199 0.383924,0 6.712702,12.06154 6.924735,13.19733 0.118623,0.63546 -2.113674,1.84197 -2.929146,1.58314 -0.392513,-0.12459 -0.70992,0.0445 -1.045597,0.55673 -1.062142,1.62103 -4.213965,2.20585 -6.004353,1.1141 z m 4.273789,-0.61354 c 0.525772,-0.32058 1.16747,-0.99193 1.426011,-1.49187 0.476736,-0.9219 1.2025,-1.20373 1.419951,-0.55139 0.09107,0.27328 0.343351,0.26474 1.069973,-0.0362 0.522917,-0.2166 0.950776,-0.44598 0.950776,-0.50975 0,-0.1332 -5.989433,-12.14962 -6.134678,-12.30783 -0.112179,-0.12221 -2.226056,0.54765 -2.226056,0.70543 0,0.0587 0.967455,2.07159 2.149901,4.47301 2.382903,4.83941 2.643509,6.09922 1.459912,7.05764 -0.3795,0.30729 -1.138567,0.55873 -1.686809,0.55873 -0.780488,0 -1.150282,-0.21062 -1.703985,-0.97045 -0.753177,-1.03357 -4.100782,-8.03251 -4.100782,-8.57363 0,-0.18204 -0.518673,-0.0572 -1.194386,0.28755 -0.656921,0.33513 -1.194396,0.74289 -1.194396,0.90613 0,0.41793 3.828076,8.02211 4.556831,9.0518 1.345804,1.90152 3.455766,2.4691 5.207737,1.40086 z m 9.503911,-1.67251 c -0.286047,-0.74901 -0.445274,-1.43665 -0.353836,-1.52807 0.09145,-0.0915 1.009613,-0.58716 2.040419,-1.1016 1.34108,-0.66931 1.955609,-1.16727 2.160448,-1.75068 0.416104,-1.18506 0.0607,-1.29647 -1.161573,-0.36418 -1.138737,0.86855 -3.308138,1.27815 -4.794194,0.90517 -1.323312,-0.33212 -3.567075,-2.69723 -4.489095,-4.73186 -1.084837,-2.3939 -1.309138,-5.05501 -0.559291,-6.63521 0.638583,-1.3457 2.5976,-2.84057 3.722545,-2.84057 0.447937,0 0.989056,-0.21041 1.202492,-0.46759 0.526157,-0.63398 1.909053,-1.324 2.653487,-1.324 0.47282,0 0.94494,0.66884 2.107731,2.98597 0.824129,1.64229 1.548549,2.98598 1.609822,2.98598 0.0613,0 -0.06841,-0.50388 -0.288209,-1.11974 -1.323977,-3.70993 0.350274,-7.70973 3.489999,-8.33768 0.539066,-0.10777 1.442525,-0.50981 2.007676,-0.89335 0.565172,-0.38354 1.243978,-0.6956 1.508457,-0.69348 0.267636,0.002 1.128263,0.99888 1.94078,2.24769 0.802947,1.2341 1.519257,2.18446 1.59183,2.1119 0.0726,-0.0726 -0.0183,-0.41258 -0.201859,-0.75561 -0.183576,-0.34302 -0.348579,-1.49171 -0.366655,-2.55262 -0.02852,-1.67436 0.07592,-2.07165 0.792074,-3.01047 2.22813,-2.92123 5.61817,-3.33465 7.97966,-0.97316 l 1.21865,1.21864 -0.20675,-1.102 c -0.26709,-1.42378 0.47886,-4.0322 1.38463,-4.84168 0.37466,-0.33481 1.39652,-0.90765 2.27081,-1.27296 0.87429,-0.36532 2.01642,-0.92446 2.53807,-1.24253 1.53206,-0.93417 1.88628,-0.76642 3.41792,1.6188 0.77677,1.20965 1.57607,2.45256 1.77623,2.76202 0.20016,0.30947 0.10236,-0.042 -0.21739,-0.78101 -0.37785,-0.87341 -0.58359,-2.03345 -0.58787,-3.31443 -0.006,-1.70394 0.11005,-2.13166 0.85454,-3.15943 1.73094,-2.38948 5.19446,-3.10359 7.29227,-1.50351 1.38712,1.05799 2.67243,3.23998 2.71356,4.60665 0.0312,1.03327 -0.0359,1.09744 -2.74458,2.62979 l -2.77644,1.57068 0.8012,0.63021 c 1.18543,0.93248 1.87307,0.78085 3.32337,-0.73277 0.73938,-0.77166 1.51981,-1.32181 1.79889,-1.26806 0.27109,0.0523 0.74998,0.53512 1.06421,1.07313 0.4928,0.84378 0.52013,1.1018 0.19892,1.87726 -0.55021,1.32835 -2.51344,2.86601 -4.1651,3.26223 -1.97558,0.47393 -3.66253,-0.0596 -5.27307,-1.66776 l -1.23534,-1.2335 1.22927,2.56187 c 0.96492,2.01093 1.2523,2.98125 1.33634,4.51205 0.0972,1.77156 0.0269,2.06035 -0.76902,3.15308 -0.96708,1.32779 -3.99279,3.12677 -5.25893,3.12677 -0.60459,0 -0.90943,-0.26688 -1.39738,-1.22334 -0.34327,-0.67284 -0.56153,-1.38642 -0.48505,-1.58571 0.0765,-0.19931 0.71297,-0.53432 1.41443,-0.74449 1.64184,-0.4919 2.97019,-1.80243 2.95769,-2.91799 l -0.009,-0.84411 -0.6395,0.85801 c -1.25202,1.6798 -4.06274,2.17798 -6.18366,1.09596 -1.1015,-0.56194 -2.04494,-1.49059 -3.02671,-2.97924 l -0.46297,-0.70201 0.0151,0.84256 c 0.0134,0.74691 -0.26742,1.00594 -2.47368,2.28197 -1.36883,0.79169 -2.60752,1.43942 -2.75266,1.43942 -0.14513,0 -0.18464,0.20652 -0.0878,0.45894 0.18036,0.47 1.60251,1.33265 2.19698,1.33265 0.18222,0 1.04168,-0.67185 1.90992,-1.493 0.86824,-0.82114 1.71812,-1.49298 1.88866,-1.49298 0.52865,0 1.27453,1.42394 1.27453,2.43317 0,0.75782 -0.30478,1.25496 -1.44049,2.34964 -2.57805,2.48491 -5.51132,2.54156 -8.00254,0.15456 -0.73121,-0.70061 -1.2902,-1.19115 -1.24221,-1.09008 0.048,0.10109 0.67371,1.36855 1.39049,2.81661 1.16202,2.34754 1.28886,2.80628 1.17049,4.23348 -0.0938,1.13157 -0.36596,1.90642 -0.92862,2.64409 -0.90991,1.19296 -3.477084,2.55802 -5.260566,2.79724 -1.203298,0.1614 -1.217132,0.15213 -1.825744,-1.22374 -0.688845,-1.55726 -0.584375,-1.97669 0.492348,-1.97669 1.038022,0 3.005607,-1.06255 3.574052,-1.93009 0.28478,-0.43465 0.39742,-0.9788 0.27951,-1.35032 -0.19173,-0.60412 -0.2157,-0.59914 -0.821393,0.17086 -1.278345,1.62516 -4.090592,2.09396 -6.176776,1.02968 -0.632717,-0.32279 -1.635145,-1.1532 -2.227588,-1.84534 -0.592444,-0.69214 -1.07718,-1.18433 -1.07718,-1.09377 0,0.0906 0.656508,1.55922 1.458917,3.26368 0.802389,1.70445 1.534928,3.52001 1.627837,4.03456 0.423676,2.34619 -1.145263,4.65612 -4.130064,6.08063 -2.584936,1.23369 -2.945085,1.18683 -3.576006,-0.46519 z m 5.317813,-1.56572 c 1.281877,-1.21703 1.77659,-2.3706 1.618418,-3.77381 -0.147748,-1.31084 -6.12759,-13.62934 -6.710493,-13.82362 -0.180308,-0.0602 -0.777167,0.28165 -1.326353,0.75945 -0.549186,0.4778 -1.50527,0.9617 -2.124637,1.07533 -1.489683,0.27331 -3.108937,1.73302 -3.54798,3.1984 -0.414022,1.3819 -0.03465,3.47001 1.010894,5.56343 0.769653,1.54107 3.141939,3.85169 4.236565,4.12643 1.426459,0.358 2.936398,-0.15256 4.114891,-1.39142 0.610763,-0.64206 1.235858,-1.16737 1.389097,-1.16737 0.402128,0 0.641101,0.7767 0.641101,2.08367 0,0.92246 -0.193837,1.30923 -1.019479,2.03415 -0.560716,0.49232 -1.501301,1.05413 -2.090182,1.24848 -0.588892,0.19435 -1.070704,0.39007 -1.070704,0.43495 0,0.045 0.145241,0.49824 0.322768,1.00748 l 0.322768,0.9259 1.692764,-0.74827 c 0.931025,-0.41155 2.074278,-1.11047 2.540562,-1.55318 z m -6.985031,-5.80855 c -0.550048,-0.37067 -1.376132,-1.39378 -1.835738,-2.27357 -1.284828,-2.45945 -1.041274,-4.95155 0.555013,-5.67886 1.740249,-0.79291 2.836744,-0.0377 4.427382,3.04939 1.267536,2.46001 1.355513,3.80534 0.31677,4.84409 -0.924052,0.92406 -2.148777,0.94489 -3.463427,0.0589 z m 2.894835,-0.68474 c 0.936171,-0.93618 0.824982,-1.58888 -0.730499,-4.28854 -1.267677,-2.20015 -1.741655,-2.58169 -2.858783,-2.30132 -1.712769,0.42988 -1.756941,2.69399 -0.100684,5.16165 0.845707,1.26005 1.96858,2.17193 2.690939,2.18532 0.130635,0.002 0.580203,-0.33829 0.999037,-0.75711 z m 13.842611,1.65293 c 2.07462,-1.06145 3.17528,-2.91606 2.83087,-4.77008 -0.38725,-2.08469 -6.428148,-12.84119 -7.212277,-12.8423 -0.192681,-2.7e-4 -0.74955,0.33542 -1.237493,0.746 -0.518981,0.43669 -1.262501,0.74649 -1.791591,0.74649 -2.077232,0 -3.896988,2.90293 -3.495997,5.57691 0.42054,2.80443 2.303264,5.4644 4.601027,6.50055 1.70196,0.76748 3.158989,0.43095 4.573866,-1.05638 0.610764,-0.64205 1.311325,-1.16736 1.556815,-1.16736 0.57126,0 0.95079,1.90951 0.5858,2.94735 -0.32421,0.92188 -1.867205,2.01547 -3.442101,2.43954 -1.309139,0.35252 -1.31192,0.35785 -0.685658,1.31365 0.420793,0.64221 0.565598,0.67952 1.567629,0.40395 0.607212,-0.167 1.57431,-0.54424 2.14911,-0.83832 z m -6.425653,-6.99831 c -3.045404,-3.22907 -2.840087,-7.32999 0.36699,-7.32999 1.277218,0 2.279494,0.97937 3.451257,3.37243 1.064736,2.17449 1.073871,3.54759 0.02903,4.36942 -1.241593,0.97665 -2.683337,0.8223 -3.847305,-0.41186 z m 3.344321,-0.28361 c 0.80452,-0.692 0.819775,-0.75744 0.435388,-1.86623 -0.573738,-1.65501 -2.303111,-4.20378 -3.00307,-4.42593 -1.374939,-0.43638 -2.597715,1.14418 -2.134537,2.75915 0.544345,1.89803 2.483359,4.25016 3.50368,4.25016 0.200638,0 0.739989,-0.32272 1.198539,-0.71715 z m 11.745022,-2.23131 c 0.74143,-0.46579 1.60181,-1.31813 1.91197,-1.89406 0.50708,-0.94156 0.51896,-1.11135 0.11791,-1.68393 -0.44246,-0.6317 -0.45688,-0.62607 -1.80738,0.70536 -1.4414,1.42103 -2.54191,1.70533 -3.90432,1.00859 -0.75623,-0.38674 -1.68103,-1.45302 -1.69066,-1.94929 -0.003,-0.18807 0.69879,-0.70846 1.561,-1.15642 3.81112,-1.98008 4.16451,-2.25654 3.958,-3.09652 -0.10542,-0.42893 -0.51899,-1.34215 -0.91897,-2.02939 -1.85609,-3.1892 -5.02667,-3.41893 -7.54831,-0.54691 -1.337469,1.52326 -1.304382,3.28632 0.11953,6.36961 2.18982,4.74178 5.06807,6.24139 8.20123,4.27296 z m -6.563,-6.28843 c -0.45896,-0.85755 -0.37432,-2.77962 0.15571,-3.53635 0.65694,-0.93792 2.30892,-0.90303 3.28121,0.0693 1.1516,1.15159 0.95187,1.82183 -0.89501,3.00327 -1.88181,1.20377 -2.12241,1.24767 -2.54191,0.4638 z m 3.19834,-2.04628 c 0.18536,-0.48091 -0.75816,-1.55652 -1.36539,-1.55652 -1.13379,0 -1.8643,1.50748 -1.36326,2.81321 0.15932,0.41516 0.32887,0.39066 1.38106,-0.19953 0.65969,-0.37003 1.26611,-0.84577 1.34759,-1.05716 z m 13.91714,7.52836 c 2.83434,-1.41838 3.93918,-2.94993 3.69443,-5.12134 -0.24759,-2.19659 -5.56977,-12.40393 -6.69206,-12.83458 -0.2398,-0.092 -0.82396,0.11953 -1.29814,0.47011 -0.47418,0.35057 -1.03554,0.6388 -1.24748,0.64049 -0.75916,0.006 -3.03111,1.35584 -3.61788,2.14936 -0.35793,0.48403 -0.65143,1.45274 -0.73105,2.41266 -0.10857,1.30877 0.0186,1.92439 0.69092,3.34554 2.26677,4.79155 5.91807,6.23076 8.55662,3.3727 1.39831,-1.51465 2.03169,-1.37891 2.03169,0.43543 0,0.70765 -0.21045,1.58705 -0.46763,1.95426 -0.50183,0.71644 -2.49775,1.85403 -3.25295,1.85403 -0.25288,0 -0.45979,0.0738 -0.45979,0.16412 0,0.3081 0.91064,1.92605 1.08405,1.92605 0.0951,0 0.86427,-0.34597 1.70927,-0.76883 z m -5.13597,-7.151 c -1.06815,-0.89879 -2.4349,-3.51477 -2.4349,-4.66044 0,-1.76001 1.28677,-3.24538 2.81145,-3.24538 1.40858,0 4.05628,3.99217 4.05628,6.11603 0,2.3155 -2.57329,3.3545 -4.43283,1.78979 z m 3.10272,-0.57661 c 0.40311,-0.40311 0.73292,-0.9489 0.73292,-1.21288 0,-0.74194 -1.41306,-3.5541 -2.22739,-4.43278 -1.15997,-1.25163 -2.64648,-0.90333 -3.23335,0.75761 -0.57934,1.63956 1.98356,5.46069 3.75738,5.60205 0.13063,0.0102 0.56733,-0.31091 0.97044,-0.714 z m 10.97414,-2.35787 c 1.03119,-0.43087 2.89706,-2.35258 2.89706,-2.98378 0,-0.20924 -0.18387,-0.6319 -0.40861,-0.93926 -0.38643,-0.52846 -0.47313,-0.49102 -1.59605,0.68941 -1.02614,1.07869 -1.35782,1.24826 -2.44164,1.24826 -0.93349,0 -1.44161,-0.18741 -1.98712,-0.73292 -0.71948,-0.71948 -1.00494,-1.95445 -0.45177,-1.95445 0.15462,0 1.36394,-0.63282 2.68738,-1.40628 2.75816,-1.61194 2.87603,-1.91638 1.55098,-4.00576 -1.36453,-2.15164 -2.2921,-2.73229 -4.12471,-2.58202 -2.69101,0.22066 -4.57515,2.18822 -4.57515,4.77773 0,1.47602 1.48765,4.85022 2.85072,6.46582 1.45234,1.72143 3.58674,2.26397 5.59891,1.42325 z m -5.87961,-6.33944 c -0.28248,-0.73615 -0.21313,-2.79195 0.11487,-3.40482 0.32728,-0.61152 1.77856,-1.04037 2.61853,-0.77377 0.6791,0.21554 1.66938,1.85622 1.45601,2.41228 -0.17154,0.44702 -3.0976,2.23115 -3.66687,2.23582 -0.18772,0.001 -0.42286,-0.20974 -0.52254,-0.46951 z m 3.24617,-1.90604 c 0.10089,-0.16318 0.0381,-0.56821 -0.13954,-0.90006 -0.43007,-0.80358 -1.95648,-0.82011 -2.38158,-0.0259 -0.34207,0.63916 -0.41293,1.90645 -0.12284,2.19656 0.21294,0.21292 2.36679,-0.82222 2.64396,-1.2707 z m 10.66402,4.08974 c -0.17291,-0.20833 -1.86585,-3.49485 -3.76208,-7.30335 l -3.44771,-6.92457 -1.82722,1.0328 c -1.00498,0.56805 -2.06978,1.03282 -2.36624,1.03282 -0.58071,0 -1.7924,-1.78685 -1.7924,-2.64321 0,-0.36086 1.25044,-1.18959 4.10572,-2.72107 2.25814,-1.21122 4.80389,-2.58246 5.6572,-3.04722 0.85334,-0.46476 1.6684,-0.84503 1.81126,-0.84503 0.36867,0 1.56411,2.20865 1.56411,2.88978 0,0.39298 -0.508,0.81814 -1.64229,1.37444 -0.90324,0.443 -1.64229,0.93926 -1.64229,1.10281 0,0.16355 1.54525,3.39766 3.43388,7.18689 1.88862,3.78923 3.43373,7.0497 3.43357,7.24548 -2.6e-4,0.29696 -2.6121,1.99821 -3.06778,1.99821 -0.0789,0 -0.28483,-0.17045 -0.45773,-0.37878 z m 2.63002,-1.76918 c 0,-0.13518 -1.55251,-3.34856 -3.45002,-7.14084 -1.89752,-3.79227 -3.40839,-7.11679 -3.35749,-7.38781 0.051,-0.27099 0.85185,-0.89644 1.77986,-1.38986 l 1.68729,-0.89712 -0.45941,-0.89446 c -0.25266,-0.49196 -0.49134,-0.93296 -0.53041,-0.97999 -0.0829,-0.0999 -3.85082,1.85362 -7.94744,4.12039 l -2.87179,1.58905 0.5851,0.99167 0.5851,0.99167 1.39089,-0.79215 c 0.76501,-0.43567 1.51856,-0.9044 1.67458,-1.04159 0.15601,-0.13721 0.59487,-0.24946 0.97523,-0.24946 0.60252,0 1.07361,0.77838 3.65948,6.0466 1.63239,3.32562 3.24482,6.54727 3.58322,7.15921 l 0.61526,1.11261 1.04026,-0.49607 c 0.57217,-0.27284 1.04029,-0.60668 1.04029,-0.74185 z m 1.87672,-1.42556 c -1.17925,-0.71901 -2.47392,-3.16977 -2.47392,-4.683 0,-1.76859 0.98835,-3.39921 2.83404,-4.67572 0.90471,-0.62571 1.64492,-1.24314 1.64492,-1.37206 0,-0.12893 -0.25756,-0.4675 -0.57236,-0.75239 -0.72938,-0.66008 -1.40183,-0.33326 -2.70819,1.31614 -0.52249,0.65971 -1.19828,1.19947 -1.50177,1.19947 -0.64676,0 -1.78682,-1.47733 -1.78682,-2.31544 0,-1.012 1.66279,-2.9437 3.15623,-3.66665 2.81456,-1.36252 4.93739,-0.71382 6.74626,2.06149 0.4956,0.76038 0.80928,1.11377 0.69707,0.78532 -0.3337,-0.97677 -0.54,-3.91942 -0.33269,-4.74544 0.40114,-1.5983 2.8999,-3.76458 4.34235,-3.76458 0.33265,0 1.04476,-0.26824 1.58247,-0.59608 0.53771,-0.32785 1.21583,-0.59659 1.50692,-0.59721 0.6636,-0.001 3.18966,3.86227 5.48172,8.38441 3.16971,6.25372 2.52457,9.07236 -2.62524,11.46975 -2.27759,1.06028 -2.80221,0.99002 -3.54981,-0.47538 -0.74452,-1.45938 -0.62237,-1.93943 0.55959,-2.19903 1.4422,-0.31677 3.59676,-1.84321 3.81197,-2.70067 0.28893,-1.15115 0.0272,-1.17454 -1.45464,-0.13003 -1.07035,0.75445 -1.64376,0.94722 -2.81769,0.94722 -1.8661,0 -2.97476,-0.57637 -4.56453,-2.37303 l -1.26385,-1.42835 1.69674,3.3925 c 0.93322,1.86586 1.63329,3.5579 1.5557,3.76008 -0.2455,0.63977 -2.33501,1.47283 -2.86138,1.14081 -0.36402,-0.22963 -0.58429,-0.10474 -0.98888,0.56054 -1.18903,1.95518 -4.14296,2.65927 -6.11421,1.45733 z m 4.03225,-0.61067 c 0.54016,-0.32932 1.25886,-1.06785 1.59712,-1.64115 0.6075,-1.02966 1.24223,-1.32451 1.60112,-0.74381 0.25286,0.40914 0.79053,0.3594 1.44049,-0.13324 0.51353,-0.38925 0.40653,-0.68598 -1.8712,-5.18938 -2.90194,-5.73754 -3.83972,-6.77293 -5.92195,-6.53823 -1.53614,0.17316 -3.41833,1.40047 -4.27774,2.7894 -0.56852,0.91882 -0.56856,0.94125 -0.003,1.6397 l 0.5734,0.70811 1.3184,-1.41574 c 1.44853,-1.55549 2.72328,-1.87319 3.58384,-0.89318 1.11903,1.27436 0.96739,1.74939 -0.98088,3.07243 -2.36191,1.60395 -3.23652,3.29119 -2.67594,5.16228 0.48298,1.61205 1.13929,2.56077 2.23265,3.22754 1.1712,0.71422 2.16032,0.70115 3.38366,-0.0447 z m -1.93304,-2.09122 c -1.52393,-0.60751 -1.80041,-3.28776 -0.46742,-4.53104 1.22512,-1.14265 2.03955,-1.50196 2.39476,-1.05652 0.69328,0.86941 1.26306,2.35178 1.26306,3.28606 0,1.60986 -1.75306,2.87449 -3.1904,2.3015 z m 1.90212,-1.24158 c 0.82448,-0.77456 0.84848,-1.09064 0.18789,-2.47589 -0.60392,-1.26642 -0.85225,-1.29871 -1.94389,-0.25286 -0.94243,0.9029 -1.05699,1.73733 -0.37266,2.71437 0.58672,0.83766 1.24757,0.84212 2.12866,0.0143 z m 12.58687,0.82293 c 2.45246,-1.24275 3.54306,-3.10476 3.19152,-5.44898 -0.40941,-2.73011 -6.03564,-12.54828 -7.00757,-12.2287 -0.25603,0.0841 -1.13734,0.37419 -1.95849,0.64445 -0.82113,0.27028 -1.81563,0.64704 -2.20997,0.83727 -0.9402,0.45353 -2.1,2.23268 -2.31363,3.54917 -0.24343,1.50012 0.59433,4.06893 1.90652,5.84589 2.34965,3.18189 5.20461,3.61141 7.52134,1.13155 1.21465,-1.30017 1.8142,-0.90121 1.8142,1.20726 0,1.27524 -1.27284,2.55572 -3.27784,3.29753 -0.74273,0.27481 -1.39393,0.5305 -1.4471,0.56821 -0.0532,0.0377 0.11625,0.48029 0.37645,0.98351 0.53125,1.02731 0.63698,1.01529 3.40457,-0.38716 z m -5.95868,-7.6392 c -1.90364,-2.00115 -2.45741,-5.24471 -1.10444,-6.46912 0.88744,-0.80312 2.718,-0.70096 3.69009,0.20595 1.19732,1.11702 2.22675,3.36294 2.22675,4.85809 0,1.6878 -0.88728,2.60005 -2.52891,2.60005 -0.94951,0 -1.34222,-0.20551 -2.28349,-1.19497 z m 3.84197,-0.22212 c 0.54193,-0.70947 0.45959,-1.71895 -0.25681,-3.1484 -1.31711,-2.62804 -2.93092,-3.55254 -4.19864,-2.40526 -1.67313,1.51415 1.11161,6.75683 3.30834,6.22843 0.42562,-0.10237 0.94182,-0.40603 1.14711,-0.67477 z M 54.582957,90.518335 c -0.908058,-0.908062 -0.935975,-2.046954 -0.135725,-5.537627 0.698611,-3.047331 0.734487,-4.604651 0.173607,-7.536092 C 53.465888,71.408229 45.583835,54.442854 37.798538,41.236193 35.015039,36.514386 29.344386,27.964663 27.024853,24.992561 23.054277,19.904922 18.017145,15.412757 13.503112,12.933741 c -0.961519,-0.52805 -1.749814,-1.111109 -1.751764,-1.295689 -0.0051,-0.477726 4.413383,-3.316137 6.473707,-4.1587323 2.401897,-0.9822855 3.938459,-1.1591964 6.287512,-0.7239096 4.654801,0.8625464 8.694753,4.0896099 14.897729,11.9001119 10.977544,13.822425 19.879048,30.420205 25.722056,47.961448 1.789712,5.372899 2.380262,6.764693 3.829669,9.025769 1.512796,2.359962 2.49885,4.545261 2.502349,5.545682 0.0079,2.269423 -2.781915,4.873748 -8.064037,7.527849 -5.287833,2.656978 -7.508598,3.110839 -8.817376,1.802065 z m 4.072539,-0.420306 c 4.178313,-1.439114 9.629695,-4.711938 11.127899,-6.680814 1.542998,-2.027748 1.365566,-2.876553 -1.645322,-7.870935 -1.212669,-2.011554 -2.08712,-4.062444 -3.373709,-7.91252 C 58.953933,50.246146 51.38124,35.641448 41.013255,21.827364 33.747772,12.146991 29.25845,8.2708664 24.251438,7.3550569 21.190313,6.7951621 18.386998,7.6559343 14.340131,10.398376 l -1.737336,1.177341 2.110621,1.301284 c 7.984025,4.92248 13.608317,11.495875 22.850251,26.70625 6.570823,10.81426 15.594102,29.501101 17.379216,35.99164 0.225841,0.821144 0.491148,2.769492 0.589568,4.329663 0.14539,2.304669 0.0604,3.331104 -0.453137,5.472979 -0.783348,3.267204 -0.78826,3.925961 -0.03488,4.679331 0.742303,0.742311 1.548687,0.751497 3.611069,0.04116 z M 38.472273,72.037701 C 30.539637,65.224522 20.509576,53.353681 14.648573,43.841721 7.1994275,31.752327 4.5019533,22.074646 7.1008117,16.76277 c 0.9825992,-2.008364 1.3237909,-2.058144 4.0050593,-0.584335 4.504615,2.476048 9.958596,7.534896 13.98653,12.973232 2.572948,3.473876 6.695742,9.874472 10.072981,15.638202 5.081075,8.671567 13.586416,26.199877 13.200754,27.204896 -0.171273,0.446329 -5.2753,3.136537 -5.931483,3.12634 -0.208567,-0.0032 -1.991638,-1.390775 -3.96238,-3.083404 z m 6.706022,1.15465 2.663026,-1.337451 -0.71275,-1.754087 C 44.613793,63.911905 38.075171,50.978467 33.894422,43.923569 24.704954,28.416601 18.302995,20.895796 10.765795,16.752833 9.6728265,16.152061 8.625219,15.755305 8.4377748,15.871152 8.2503305,15.986998 7.8473276,16.646131 7.5422147,17.335892 6.041244,20.729083 6.6687575,25.760135 9.4219603,32.406621 14.625126,44.967552 27.235068,61.543233 39.769086,72.297711 c 1.421721,1.219872 2.621228,2.221128 2.665567,2.225018 0.04434,0.0039 1.278977,-0.594781 2.743642,-1.330378 z"
       id="path19794" />
    <path
       style="fill:#ccff00;stroke-width:0.290809"
       d="M 108.38298,272.31728 C 105.96265,271.714 104.85115,271.164 102.71221,269.5112 99.450076,266.99048 99.660458,267.31347 84.53546,241.60557 70.330277,217.46106 70.815357,218.28081 45.214476,175.15578 9.9388318,115.73349 8.2552247,112.82686 6.9998737,109.18093 5.7669585,105.60015 6.0772396,100.96385 7.7937437,97.318694 9.5410468,93.608134 12.799646,91.261287 25.211709,84.774272 35.547803,79.372233 38.250471,77.877765 38.378548,77.493533 38.444986,77.294217 37.799745,76.516505 36.944677,75.765288 33.419419,72.668175 25.697641,64.863724 23.068362,61.740405 12.274195,48.918021 4.5941311,35.523191 2.6429414,26.116342 1.2836055,19.562868 2.5839619,14.747841 6.8907623,10.38725 10.141123,7.0962953 14.325147,4.4988324 18.340464,3.2792173 c 1.798255,-0.5462019 2.588045,-0.6243865 5.081816,-0.503065 5.021423,0.2442902 8.06301,1.9491162 13.857989,7.7674767 10.879221,10.92312 21.443621,28.5478 29.540328,49.282384 0.307101,0.786452 0.707792,1.479672 0.89042,1.540491 0.182628,0.06083 7.576436,-3.537096 16.430689,-7.995375 9.932359,-5.00113 16.691924,-8.236668 17.647574,-8.447201 4.09076,-0.901214 8.04675,-0.08029 11.50496,2.387424 3.58632,2.559147 1.27969,-1.042487 31.49737,49.180685 10.87442,18.073753 26.30718,43.723073 34.29504,56.998493 25.18935,41.86345 28.25251,47.166 29.31487,50.74612 0.64691,2.18008 0.88843,6.43794 0.48661,8.57885 -0.68475,3.64846 -3.2147,7.69917 -6.36479,10.19071 -2.60446,2.05997 -17.15566,10.44112 -63.56056,36.60941 -19.35692,10.91561 -21.82661,12.19341 -24.76362,12.81261 -2.5428,0.53608 -3.27645,0.52208 -5.81618,-0.11095 z m 5.46896,-3.80101 c 1.31767,-0.2158 3.10577,-1.05406 8.14265,-3.81721 17.28185,-9.48057 71.41269,-40.19408 75.53013,-42.85534 6.45551,-4.17245 8.87325,-9.26723 7.38946,-15.57142 -0.63843,-2.71246 -2.74624,-6.93933 -7.29889,-14.63665 -5.75268,-9.72628 -73.85809,-122.971104 -78.73082,-130.912635 -4.36089,-7.107332 -6.8862,-10.178173 -9.33825,-11.355509 -1.6622,-0.798097 -6.25718,-0.94688 -8.35007,-0.270369 -1.475343,0.476897 -28.880923,14.342457 -31.127205,15.748474 -0.599793,0.375432 -1.090531,0.874267 -1.090531,1.108528 0,0.984526 1.617647,4.616441 3.628056,8.145632 2.352365,4.129497 2.940743,5.872309 2.664045,7.891057 -0.570348,4.161151 -3.540993,7.029705 -11.101353,10.719836 -5.72435,2.794008 -9.565053,3.117375 -12.110004,1.01961 -2.137492,-1.761903 -2.44236,-3.958771 -1.374773,-9.906587 0.550972,-3.069611 0.571605,-3.579597 0.218105,-5.391214 -0.28815,-1.476732 -0.522976,-2.026079 -0.896405,-2.097026 -0.483422,-0.09184 -26.51791,13.454622 -32.143099,16.724942 -3.140907,1.826039 -5.762694,4.281141 -6.770143,6.339738 -0.629271,1.285833 -0.711636,1.840933 -0.711982,4.798343 -2.9e-4,2.4459 0.13728,3.73843 0.512109,4.81149 0.731098,2.09296 2.688521,5.52697 14.120258,24.77189 5.583891,9.40027 13.94508,23.50374 18.580419,31.34103 4.635336,7.8373 13.402645,22.62491 19.482899,32.86138 6.080258,10.23647 16.64988,28.09939 23.488047,39.69538 15.211917,25.79599 15.125427,25.65752 17.377037,27.81963 3.20616,3.07872 5.41944,3.75252 9.91031,3.017 z M 60.488018,90.223009 c 3.177034,-1.271775 7.061816,-3.564194 8.923848,-5.26599 2.812666,-2.570618 2.811697,-4.084787 -0.0057,-8.849282 C 67.652928,73.142751 67.212897,72.111498 65.13703,66.102533 58.979397,48.278112 50.961726,33.261005 40.21726,19.427744 36.971632,15.249068 32.143289,10.295747 29.902405,8.8458933 25.821842,6.2057664 21.540194,5.7626167 17.687551,7.5816594 c -2.87372,1.356838 -6.046902,3.5299726 -5.940834,4.0685446 0.04828,0.245178 1.134702,1.094169 2.414261,1.886644 3.087088,1.911942 5.87978,4.175603 8.777443,7.114694 7.787076,7.898411 20.246106,28.765447 28.005475,46.905035 3.566534,8.337717 4.376303,12.46802 3.384599,17.263398 -0.545479,2.637648 -0.604717,4.628565 -0.162315,5.455202 0.735158,1.373653 2.802578,1.356592 6.321838,-0.05217 z M 45.859123,73.711537 c 3.12916,-1.666095 3.100973,-1.507301 1.085079,-6.112336 C 40.86963,53.722635 30.262382,35.220655 23.812192,27.250548 19.782647,22.27149 12.582646,16.225729 9.4521301,15.192565 c -0.8920392,-0.2944 -1.0824106,-0.260547 -1.6772342,0.298261 -1.0168684,0.955299 -1.721378,3.560375 -1.6938532,6.263385 0.1008771,9.906023 9.1759823,25.99332 23.6193553,41.86965 5.332202,5.861222 11.670959,11.499875 12.913787,11.487484 0.345211,-0.0035 1.805436,-0.633353 3.244938,-1.399808 z"
       id="path3" />
    <path
       style="fill:#ff2a2a;stroke-width:0.290809"
       d=""
       id="path5" />
    <path
       style="fill:#ff2a2a;stroke-width:0.290809"
       d="m 60.69368,184.09814 c -1.567496,-2.91899 -3.068652,-5.69984 -3.335906,-6.17968 -0.267254,-0.47983 -0.830146,-1.62521 -1.25087,-2.54526 l -0.764952,-1.67284 0.865192,-0.44742 c 0.475857,-0.24606 0.979934,-0.37649 1.120167,-0.28982 0.140236,0.0867 1.529502,2.54572 3.087258,5.46455 3.534763,6.62324 4.080993,7.48802 4.72966,7.48802 0.286358,0 1.611229,-0.52738 2.944158,-1.17197 1.332933,-0.64459 2.469705,-1.12579 2.526164,-1.06933 0.05646,0.0564 0.182353,0.50114 0.279762,0.98818 0.175975,0.87988 0.153509,0.89786 -3.517892,2.81419 -2.032248,1.06075 -3.725994,1.92865 -3.763874,1.92865 -0.03788,0 -1.351372,-2.38827 -2.918867,-5.30727 z"
       id="path6" />
    <path
       style="fill:#ff2a2a;stroke-width:0.290809"
       d="m 60.206008,182.78951 c -5.199034,-9.69522 -5.036203,-9.25471 -3.490517,-9.44292 0.587323,-0.0716 1.019226,0.56703 3.668591,5.42395 1.651593,3.02777 3.325874,5.90617 3.720628,6.39647 0.685896,0.8519 0.76798,0.87712 1.85059,0.56843 0.623071,-0.17765 1.889378,-0.66794 2.814012,-1.08951 1.494853,-0.68158 1.701402,-0.71377 1.863835,-0.29047 0.100471,0.26183 0.05201,0.68729 -0.107713,0.94545 -0.237865,0.38448 -6.288881,3.7804 -6.781895,3.80609 -0.08015,0.004 -1.672036,-2.8387 -3.537531,-6.31749 z"
       id="path7" />
    <path
       style="fill:#ff2a2a;stroke-width:0.290809"
       d="m 86.609769,180.60671 c -0.267301,-0.99738 -0.26864,-0.99538 1.119016,-1.66713 0.716015,-0.34662 1.646076,-1.03931 2.066798,-1.53931 0.643679,-0.76496 0.742171,-1.11114 0.621279,-2.18369 -0.220328,-1.95469 -0.554809,-2.06302 -2.118917,-0.68623 -2.545322,2.24048 -4.096215,2.13862 -6.583099,-0.43239 -2.305709,-2.3837 -3.433115,-5.98403 -2.461929,-7.8621 0.57508,-1.11208 2.378061,-2.71242 3.055877,-2.71242 0.283011,0 1.133623,-0.3926 1.890237,-0.87244 0.756623,-0.47983 1.49512,-0.87242 1.641102,-0.87242 0.287498,0 5.428982,10.32446 6.257191,12.56486 0.899247,2.43258 -0.07297,4.16251 -3.289299,5.85263 -2.018425,1.06064 -2.023774,1.06165 -2.198256,0.41064 z m 0.888955,-7.24647 c 1.020808,-0.959 0.908736,-2.69475 -0.333223,-5.16093 -1.47207,-2.92315 -2.773232,-3.73983 -4.618733,-2.89896 -1.494692,0.68103 -1.774714,3.01929 -0.640441,5.3479 0.389547,0.79972 0.879008,1.65633 1.08769,1.9036 1.290494,1.52903 3.345132,1.89775 4.504707,0.80839 z"
       id="path9" />
    <path
       style="fill:#ff2a2a;stroke-width:0.290809"
       d="m 72.581113,182.17924 c -0.497657,-0.31246 -1.168698,-0.94094 -1.491201,-1.39662 -0.708198,-1.00063 -4.437969,-8.40823 -4.437969,-8.81411 0,-0.39193 1.842065,-1.31943 1.953932,-0.98383 0.446277,1.33883 4.207245,8.5113 4.685626,8.93586 0.804869,0.71432 2.588677,0.46971 3.347374,-0.45902 0.79438,-0.97241 0.462316,-2.31863 -1.728872,-7.00895 -1.044115,-2.23498 -1.791665,-4.16215 -1.661223,-4.28262 0.130442,-0.12045 0.52729,-0.30661 0.881883,-0.41365 0.594448,-0.17947 0.882131,0.27978 3.689864,5.89039 l 3.045149,6.08502 -0.773994,0.35266 c -0.540593,0.24631 -0.805577,0.25792 -0.878715,0.0385 -0.215163,-0.64549 -1.016154,-0.27402 -2.190087,1.01569 -1.474416,1.61983 -2.963638,1.96874 -4.441767,1.04068 z"
       id="path10" />
    <path
       style="fill:#ff2a2a;stroke-width:0.290809"
       d="m 97.210745,174.61881 c -0.433643,-0.81029 -0.453059,-0.78356 0.85336,-1.17497 1.475065,-0.44194 3.102695,-1.85416 3.319825,-2.88048 0.22281,-1.05309 -0.20379,-2.51136 -0.76637,-2.61975 -0.24936,-0.048 -1.064993,0.44199 -1.812533,1.08898 -1.702904,1.47386 -2.464998,1.6701 -4.084167,1.05173 -3.25943,-1.24478 -5.561628,-5.94779 -4.400217,-8.98891 0.624009,-1.63394 1.565285,-2.4973 3.098193,-2.84172 0.677091,-0.15213 1.557804,-0.53361 1.957151,-0.84774 0.399337,-0.31411 0.831356,-0.57112 0.960043,-0.57112 0.570997,0 5.96259,9.52483 6.77197,11.96338 0.78503,2.36522 -0.41635,4.46607 -3.225022,5.63961 -1.890814,0.79004 -2.330343,0.81981 -2.672233,0.18099 z m 1.161918,-6.89908 c 1.849697,-1.67396 -1.15047,-7.97682 -3.796994,-7.97682 -0.475469,0 -1.203501,0.30767 -1.662031,0.70237 -0.711509,0.61246 -0.814091,0.90351 -0.801546,2.27411 0.01665,1.81216 0.97477,3.72852 2.510276,5.02056 0.772711,0.6502 1.133895,0.76166 2.063936,0.63691 0.62002,-0.0831 1.378877,-0.37886 1.686359,-0.65713 z"
       id="path11" />
    <path
       style="fill:#ff2a2a;stroke-width:0.290809"
       d="m 105.68179,165.22364 c -2.96674,-0.83326 -6.162585,-7.33956 -4.99259,-10.1642 0.45287,-1.0933 2.31172,-2.50543 3.62147,-2.75114 1.10724,-0.20772 2.3798,0.35772 3.48474,1.5484 0.82952,0.89387 1.79773,3.1686 1.48699,3.49353 -0.11131,0.1164 -1.34026,0.87299 -2.731,1.68132 -1.39073,0.80833 -2.56818,1.67518 -2.61654,1.92633 -0.0484,0.25114 0.32113,0.8657 0.82112,1.36568 0.73726,0.73726 1.14617,0.90907 2.16367,0.90907 1.03267,0 1.50061,-0.2033 2.64534,-1.14924 0.76489,-0.63207 1.49889,-1.08238 1.6311,-1.00066 0.49817,0.30788 0.20898,1.29301 -0.6752,2.30003 -1.46894,1.67303 -3.15419,2.31413 -4.8391,1.84088 z m -0.93391,-6.67558 c 2.42519,-1.45598 2.84096,-2.38841 1.61267,-3.61671 -0.96557,-0.96555 -2.83209,-1.00167 -3.48644,-0.0675 -0.81749,1.16713 -0.45104,4.29927 0.50266,4.29633 0.19431,-5.9e-4 0.8113,-0.27606 1.37111,-0.61215 z"
       id="path12" />
    <path
       style="fill:#ff2a2a;stroke-width:0.290809"
       d="m 117.8445,163.83336 c -0.46158,-0.86246 -0.36992,-1.09585 0.49868,-1.26992 0.43985,-0.0881 1.297,-0.59523 1.90478,-1.12688 0.97194,-0.85018 1.10768,-1.1293 1.1268,-2.31706 0.0378,-2.34445 -0.32388,-2.48196 -2.21731,-0.84321 -1.62166,1.40353 -2.9078,1.70795 -4.34157,1.02758 -2.34052,-1.11065 -4.53471,-4.63748 -4.53979,-7.29708 -0.004,-1.92102 0.82783,-3.16574 2.75983,-4.13129 0.79973,-0.39968 1.97072,-0.98714 2.60221,-1.30549 l 1.14816,-0.5788 0.82975,0.98698 c 1.09501,1.30251 5.6236,10.36127 5.80807,11.61818 0.31101,2.11901 -0.86432,3.8456 -3.55068,5.21609 -1.41839,0.7236 -1.65157,0.72601 -2.02893,0.0209 z m 0.25978,-6.55156 c 0.95787,-0.49533 1.18403,-0.96319 1.18403,-2.44931 0,-2.23007 -2.71271,-6.1403 -4.2598,-6.1403 -0.45622,0 -1.12302,0.3809 -1.73086,0.98875 -1.33282,1.33281 -1.34742,2.76443 -0.053,5.19301 1.37317,2.57635 2.98726,3.3761 4.85963,2.40785 z"
       id="path13" />
    <path
       style="fill:#ff2a2a;stroke-width:0.290809"
       d="m 125.76067,153.89565 c -1.38918,-0.40555 -2.92155,-2.10634 -4.06262,-4.50913 -1.56737,-3.30041 -1.29844,-5.60562 0.83082,-7.12179 1.23473,-0.8792 3.66629,-1.09425 4.70171,-0.41582 0.86459,0.5665 2.52685,3.02728 2.52685,3.74072 0,0.56586 -1.62027,1.78768 -3.72868,2.81175 -1.73478,0.84259 -1.9547,1.61328 -0.79208,2.7759 0.55764,0.55764 1.01622,0.71381 2.0961,0.71381 1.19572,0 1.52761,-0.1419 2.45884,-1.05122 1.08318,-1.05768 1.71067,-1.10687 1.71067,-0.13408 0,1.17422 -2.16705,3.00224 -3.92592,3.31172 -0.47983,0.0845 -1.2969,0.0296 -1.81569,-0.12186 z m -0.53258,-6.51469 c 2.33546,-1.36869 2.63008,-2.17053 1.31578,-3.58125 -0.70298,-0.75456 -2.17786,-0.83975 -3.11953,-0.18018 -0.55116,0.38605 -0.64632,0.72145 -0.64632,2.278 0,2.53555 0.32203,2.73053 2.45007,1.48343 z"
       id="path14" />
    <path
       style="fill:#ff2a2a;stroke-width:0.290809"
       d="m 134.09007,142.22169 c -1.777,-3.55876 -3.43365,-6.6995 -3.68144,-6.97939 -0.63698,-0.71953 -1.30774,-0.63639 -2.93277,0.3635 -0.77982,0.47984 -1.54486,0.87242 -1.70008,0.87242 -0.30911,0 -1.13451,-1.38132 -0.93831,-1.57029 0.21546,-0.20752 10.00298,-5.40667 10.18054,-5.40791 0.31684,-0.002 0.90124,1.57997 0.6184,1.67425 -0.91178,0.30393 -2.9709,1.87623 -2.9709,2.26853 0,0.49705 2.53969,6.06403 5.14565,11.27921 1.48638,2.97461 1.54634,3.17737 1.05073,3.55316 -1.21145,0.91853 -1.42709,0.64498 -4.77182,-6.05348 z"
       id="path15" />
    <path
       style="fill:#ff2a2a;stroke-width:0.290809"
       d="m 142.25924,145.7114 c -1.4373,-0.97821 -2.10007,-2.0498 -2.2349,-3.61344 -0.15414,-1.78738 0.4666,-2.82574 2.65618,-4.44328 1.79018,-1.32249 2.03392,-2.07368 1.02439,-3.15728 -0.97032,-1.04152 -2.12736,-0.8354 -3.73103,0.66464 -1.06478,0.99597 -1.47103,1.22102 -1.7324,0.95967 -0.5169,-0.51691 -0.41505,-1.09148 0.3777,-2.13084 0.81854,-1.07315 2.85891,-2.16558 4.04476,-2.16558 1.26835,0 1.87549,0.48737 3.2456,2.60534 1.39629,2.15844 4.20449,7.72655 4.20449,8.33668 0,0.5128 -1.06924,1.07768 -1.30815,0.69111 -0.3582,-0.57958 -1.18039,-0.27069 -1.99416,0.7492 -0.90338,1.1322 -2.38569,2.15529 -3.12518,2.15702 -0.25624,6e-4 -0.89853,-0.29337 -1.4273,-0.65324 z m 3.84097,-2.55733 c 0.79761,-0.79762 0.86585,-1.00604 0.68982,-2.10688 -0.24044,-1.50367 -1.0444,-2.93475 -1.722,-3.06525 -0.77564,-0.14937 -2.42725,1.27508 -2.80478,2.41899 -0.3936,1.19264 0.0185,2.86851 0.82049,3.33643 0.9508,0.55476 2.10078,0.3324 3.01647,-0.58329 z"
       id="path16" />
    <path
       style="fill:#ff2a2a;stroke-width:0.290809"
       d="m 154.7772,143.76756 c -0.4367,-0.81598 -0.4355,-0.81753 1.15513,-1.5018 2.64953,-1.1398 3.9465,-3.4878 2.79581,-5.06147 -0.38218,-0.52267 -0.43325,-0.52482 -1.09053,-0.046 -0.37927,0.27633 -1.13424,0.82524 -1.67771,1.21978 -2.33438,1.69472 -5.22099,0.24776 -7.12971,-3.57385 -1.44817,-2.8995 -1.20323,-5.17653 0.74663,-6.94101 0.71189,-0.64422 3.68387,-1.85523 4.54674,-1.85269 0.95896,0.003 5.5183,7.56591 6.61582,10.9744 0.90584,2.81322 -0.16559,4.86258 -3.39435,6.49244 -1.99496,1.00706 -2.17336,1.02722 -2.56783,0.29014 z m 1.21428,-7.10418 c 1.28684,-0.97768 1.31275,-2.99513 0.0699,-5.44766 -0.91183,-1.79942 -1.94373,-2.58932 -3.38256,-2.58932 -3.11397,0 -3.50144,4.22147 -0.6597,7.18727 1.01479,1.05909 1.36525,1.24479 2.33442,1.23692 0.62722,-0.005 1.36425,-0.17932 1.63788,-0.38721 z"
       id="path17" />
    <path
       style="fill:#ff2a2a;stroke-width:0.290809"
       d="m 110.26904,193.34628 c -0.82168,-0.44719 -1.86988,-2.16722 -2.16173,-3.54724 -0.2818,-1.33243 0.42795,-2.74893 2.03433,-4.06014 2.32105,-1.89456 2.50547,-2.12117 2.29412,-2.81887 -0.30089,-0.99327 -1.32048,-1.94807 -2.08026,-1.94807 -0.41511,0 -1.24414,0.51946 -2.08646,1.30735 -1.36249,1.27446 -1.41033,1.29337 -1.90062,0.75161 -0.47698,-0.52705 -0.47608,-0.59675 0.0175,-1.35 0.95539,-1.45812 2.6593,-2.45382 4.19912,-2.45382 1.25298,0 1.48175,0.10992 2.35554,1.13183 0.79857,0.93391 5.76614,9.79222 5.76614,10.28234 0,0.0812 -0.41669,0.32022 -0.92598,0.53117 -0.70766,0.29312 -0.95335,0.30144 -1.04206,0.0353 -0.22503,-0.67508 -1.18009,-0.33696 -1.74298,0.61708 -0.97311,1.6493 -3.1841,2.36101 -4.72664,1.52148 z m 3.80709,-2.46447 c 0.66487,-0.66487 0.85005,-1.11147 0.85005,-2.0501 0,-2.11676 -1.37757,-3.87284 -2.54457,-3.24376 -1.62893,0.8781 -2.57935,2.82657 -2.09484,4.29465 0.639,1.93619 2.39053,2.39804 3.78936,0.99921 z"
       id="path18" />
    <path
       style="fill:#ff2a2a;stroke-width:0.290809"
       d=""
       id="path19" />
    <path
       style="fill:#ff2a2a;stroke-width:0.290809"
       d="m 134.4579,183.1957 c -0.32017,-0.40344 -4.7395,-8.69933 -6.40807,-12.02911 -1.17211,-2.33906 -1.18483,-2.39652 -0.60033,-2.70934 0.32845,-0.17578 0.95871,-0.24019 1.40055,-0.14315 0.65873,0.14468 0.86151,0.0488 1.12629,-0.53229 0.40128,-0.88071 1.98519,-2.1106 3.06529,-2.38018 1.96471,-0.49033 5.09718,1.84932 6.35494,4.74651 0.82783,1.90687 0.81302,3.71416 -0.0429,5.23706 -0.86025,1.53061 -1.80721,2.17636 -3.48595,2.37714 -1.71355,0.20495 -1.79334,0.72405 -0.4563,2.96855 0.77217,1.29623 0.96843,1.86065 0.74192,2.13358 -0.44451,0.53561 -1.38711,0.71975 -1.69544,0.33123 z m 2.17411,-7.50853 c 1.42862,-0.69912 1.64383,-2.86201 0.51097,-5.13536 -0.98899,-1.98464 -2.35932,-3.03637 -3.9562,-3.03637 -2.42955,0 -3.2839,2.44456 -1.84602,5.28208 1.64814,3.25244 3.01949,4.00136 5.29125,2.88965 z"
       id="path20" />
    <path
       style="fill:#ff2a2a;stroke-width:0.290809"
       d="m 120.08038,184.67976 c -1.53146,-3.07893 -3.05285,-6.28214 -3.38088,-7.11824 -0.59295,-1.51134 -0.59307,-1.52196 -0.0216,-1.82778 0.37752,-0.20204 0.75483,-0.21126 1.09937,-0.0269 0.64144,0.34329 0.98008,0.12781 1.43836,-0.91527 0.49104,-1.11761 1.99792,-1.9599 3.50869,-1.9612 1.12911,-9e-4 1.40603,0.15195 2.76268,1.52566 2.78907,2.82415 3.67765,5.7253 2.47168,8.06994 -0.79159,1.53903 -2.12512,2.32535 -3.94469,2.32602 -0.67976,2.4e-4 -1.23594,0.13457 -1.23594,0.29851 0,0.16394 0.46642,1.22427 1.0365,2.35628 0.57007,1.13201 0.99537,2.09249 0.94512,2.13441 -0.27164,0.22659 -1.39906,0.73661 -1.62828,0.73661 -0.14658,0 -1.51952,-2.51913 -3.05097,-5.59807 z m 4.83295,-1.70422 c 1.79512,-0.81791 1.77924,-3.88525 -0.0328,-6.32387 -1.90671,-2.56609 -5.44228,-2.05735 -5.42844,0.7811 0.006,1.20164 1.29617,4.21631 2.23013,5.21047 0.68118,0.72508 2.05819,0.8667 3.23105,0.3323 z"
       id="path21" />
    <ellipse
       style="fill:#000000;stroke-width:0.298597"
       id="path22"
       cx="105.0387"
       cy="193.91295"
       rx="2.7626824"
       ry="3.1988957" />
  </g>
</svg>
